# xmcd CD database file
#
# Track frame offsets:
#	225
#	16953
#	38333
#	51575
#	90190
#	124218
#	154965
#	172055
#	192645
#
# Disc length: 2940 seconds
#
# Revision: 3
# Processed by: cddbd v1.5.2PL0 Copyright (c) Steve Scherf et al.
# Submitted via: CDex 1.51
#
DISCID=740b7909
DTITLE=Ella Fitzgerald - Ella in London
DYEAR=1974
DGENRE=Jazz
TTITLE0=Sweet Georgia Brown
TTITLE1=They Can't Take That Away From Me
TTITLE2=Everytime We Say Goodbye
TTITLE3=The Man I Love
TTITLE4=It Don't Mean A Thing (If It Ain't Got That Swing)
TTITLE5=You've Got A Friend
TTITLE6=Lemon Drop
TTITLE7=The Very Thought Of You
TTITLE8=Happy Blues
EXTD=YEAR: 1974
EXTT0=
EXTT1=
EXTT2=
EXTT3=
EXTT4=( If it ain't got that swing ]\n
EXTT5=
EXTT6=
EXTT7=
EXTT8=
PLAYORDER=
